# xmcd
#
# Track frame offsets: 
#        150
#        18343
#        40777
#        61293
#        77611
#        91894
#        102237
#        129997
#        149624
#        160877
#
# Disc length: 2391 seconds
#
# Revision: 2
# Processed by: cddbd v1.5.2PL0 Copyright (c) Steve Scherf et al.
# Submitted via: ExactAudioCopy v1.0b1
#
DISCID=7809550a
DTITLE=Kat Frankie - The Dance Of a Stranger Heart
DYEAR=2010
DGENRE=Indie
TTITLE0=the saint
TTITLE1=happy
TTITLE2=love me
TTITLE3=death of me
TTITLE4=san antonio
TTITLE5=born clever
TTITLE6=people
TTITLE7=cards
TTITLE8=the wild one
TTITLE9=the faint-hearted ones
EXTD=
EXTT0=
EXTT1=
EXTT2=
EXTT3=
EXTT4=
EXTT5=
EXTT6=
EXTT7=
EXTT8=
EXTT9=
PLAYORDER=
